<?xml version="1.0" standalone="no"?>
<!DOCTYPE svg PUBLIC "-//W3C//DTD SVG 20010904//EN"
 "http://www.w3.org/TR/2001/REC-SVG-20010904/DTD/svg10.dtd">
<svg version="1.0" xmlns="http://www.w3.org/2000/svg"
 width="500.000000pt" height="500.000000pt" viewBox="0 0 500.000000 500.000000"
 preserveAspectRatio="xMidYMid meet">
<metadata>
Created by potrace 1.16, written by Peter Selinger 2001-2019
</metadata>
<g transform="translate(0.000000,500.000000) scale(0.100000,-0.100000)"
fill="#000000" stroke="none">
<path d="M1288 3263 c-21 -2 -38 -8 -38 -13 0 -4 -9 -6 -20 -3 -12 3 -20 0
-20 -6 0 -7 -5 -9 -10 -6 -13 8 -116 -55 -152 -92 -44 -46 -77 -131 -85 -217
-6 -76 -7 -79 -53 -125 -56 -56 -80 -119 -80 -211 0 -125 53 -215 154 -265 69
-34 182 -37 249 -7 101 45 158 135 165 260 4 77 2 87 -27 147 -18 35 -47 77
-66 92 l-34 29 45 23 c45 24 103 100 154 199 12 24 40 64 62 88 26 28 38 49
34 59 -3 9 -10 13 -16 10 -5 -3 -10 -1 -10 5 0 7 -7 10 -15 6 -8 -3 -15 -1
-15 5 0 6 -8 9 -17 8 -10 -1 -26 1 -36 6 -9 4 -31 5 -47 3 -17 -3 -30 -1 -30
4 0 8 -21 8 -92 1z m-96 -533 c82 -64 75 -240 -12 -285 -66 -34 -153 -7 -186
57 -22 42 -22 134 0 176 26 51 62 72 121 72 37 0 60 -6 77 -20z"/>
<path d="M2790 2877 c-182 -52 -276 -247 -197 -410 33 -65 81 -111 154 -144
71 -33 189 -34 263 -2 27 12 50 25 50 30 0 5 -12 33 -27 63 l-26 54 -41 -19
c-107 -48 -233 12 -251 121 -21 122 125 218 252 165 19 -8 37 -15 39 -15 6 0
54 98 54 110 0 20 -89 51 -158 56 -38 2 -86 -2 -112 -9z"/>
<path d="M1616 2670 c-15 -5 -36 -16 -46 -25 -16 -15 -18 -14 -23 5 -4 17 -13
20 -66 20 l-61 0 0 -180 0 -180 65 0 65 0 0 105 c0 92 3 108 20 125 22 22 60
26 90 10 17 -9 23 -4 45 39 36 72 37 69 -45 86 -8 2 -28 -1 -44 -5z"/>
<path d="M1837 2670 c-158 -29 -188 -282 -43 -357 33 -17 128 -20 169 -4 35
14 37 -6 3 -46 -32 -36 -93 -39 -129 -5 l-25 23 -51 -25 c-28 -15 -51 -30 -51
-35 0 -4 10 -21 22 -36 67 -86 269 -88 344 -4 38 43 44 83 44 290 l0 199 -65
0 c-52 0 -65 -3 -65 -15 0 -14 -3 -14 -27 -2 -39 20 -81 25 -126 17z m128
-135 c14 -13 25 -36 25 -50 0 -36 -42 -75 -80 -75 -63 0 -94 79 -48 127 29 31
72 30 103 -2z"/>
<path d="M2262 2668 c-53 -12 -108 -66 -123 -122 -25 -92 14 -196 87 -231 46
-22 121 -22 162 -1 18 9 32 12 32 6 0 -6 27 -10 65 -10 l65 0 0 180 0 180 -65
0 c-52 0 -65 -3 -65 -15 0 -14 -3 -14 -22 -1 -31 19 -85 25 -136 14z m135
-130 c48 -45 14 -128 -53 -128 -37 0 -74 38 -74 75 0 64 80 98 127 53z"/>
<path d="M3181 2669 c-161 -35 -188 -278 -38 -356 40 -20 115 -20 155 1 18 9
32 12 32 6 0 -6 27 -10 65 -10 l65 0 0 180 0 180 -64 0 c-39 0 -66 -4 -68 -11
-3 -8 -10 -9 -23 -2 -30 15 -86 21 -124 12z m127 -129 c48 -45 16 -130 -48
-130 -38 0 -80 39 -80 75 0 35 42 75 78 75 15 0 38 -9 50 -20z"/>
<path d="M3709 2670 c-14 -4 -38 -15 -52 -25 -26 -17 -27 -17 -27 4 0 21 -4
22 -62 19 l-63 -3 -3 -177 -2 -178 64 0 64 0 4 106 c3 98 5 107 28 126 23 19
53 20 90 4 12 -5 23 8 43 50 29 59 26 73 -15 74 -9 0 -22 2 -30 4 -7 2 -25 1
-39 -4z"/>
<path d="M3940 2670 c-48 -9 -72 -23 -108 -64 -83 -94 -53 -233 61 -293 35
-18 131 -20 180 -4 31 11 106 76 96 85 -2 2 -23 13 -46 25 l-42 21 -33 -20
c-18 -11 -43 -20 -54 -20 -23 0 -74 35 -74 51 0 5 55 9 125 9 l125 0 0 39 c0
119 -103 195 -230 171z"/>
</g>
</svg>
